<?xml version="1.0" standalone="no"?>
<!DOCTYPE svg PUBLIC "-//W3C//DTD SVG 20010904//EN"
 "http://www.w3.org/TR/2001/REC-SVG-20010904/DTD/svg10.dtd">
<svg version="1.0" xmlns="http://www.w3.org/2000/svg"
 width="253.000000pt" height="234.000000pt" viewBox="0 0 253.000000 234.000000"
 preserveAspectRatio="xMidYMid meet">

<g transform="translate(0.000000,234.000000) scale(0.100000,-0.100000)"
fill="#000000" stroke="none">
<path d="M1223 2279 c-122 -21 -235 -106 -289 -216 -26 -52 -29 -68 -29 -163
0 -95 3 -111 29 -168 20 -43 47 -80 89 -118 32 -30 62 -53 65 -50 3 3 9 29 13
57 18 116 112 234 226 286 94 43 233 42 337 -2 17 -8 19 -5 13 31 -39 231
-236 381 -454 343z"/>
<path d="M1440 1900 c-55 -10 -130 -39 -130 -51 0 -5 4 -9 8 -9 17 0 105 -97
126 -140 83 -165 52 -345 -79 -469 -31 -29 -55 -54 -53 -56 17 -15 75 -35 125
-44 49 -9 76 -9 132 3 136 28 226 99 284 224 28 60 32 77 32 157 0 77 -4 99
-28 149 -66 143 -175 221 -332 239 -22 2 -60 1 -85 -3z"/>
<path d="M825 1832 c-50 -36 -89 -87 -123 -160 -35 -78 -37 -208 -3 -294 45
-116 167 -213 298 -238 116 -23 248 18 336 104 56 54 105 150 114 224 l6 50
-59 -20 c-85 -29 -228 -22 -299 15 -116 58 -192 159 -218 286 l-13 62 -39 -29z"/>
<path d="M1970 820 c-117 -25 -222 -109 -274 -220 -27 -57 -31 -76 -31 -150 0
-116 28 -185 106 -263 113 -113 265 -148 427 -98 57 17 118 58 165 111 103
115 123 286 49 423 -37 69 -129 151 -199 177 -66 25 -176 34 -243 20z m181
-187 c108 -56 148 -169 95 -277 -38 -78 -97 -116 -181 -116 -116 0 -198 73
-211 187 -5 41 -2 61 19 105 52 116 167 157 278 101z"/>
<path d="M100 445 l0 -376 93 3 92 3 5 203 5 202 205 -205 c202 -203 205 -205
247 -205 l43 0 0 375 0 375 -90 0 -90 0 0 -200 c0 -110 -3 -200 -6 -200 -3 0
-99 90 -212 200 -203 196 -207 200 -249 200 l-43 0 0 -375z"/>
<path d="M920 740 l0 -80 325 0 325 0 0 80 0 80 -325 0 -325 0 0 -80z"/>
<path d="M990 445 l0 -75 260 0 260 0 0 75 0 75 -260 0 -260 0 0 -75z"/>
<path d="M920 150 l0 -80 328 2 327 3 3 78 3 77 -331 0 -330 0 0 -80z"/>
</g>
</svg>
