<?xml version="1.0" standalone="no"?>
<!DOCTYPE svg PUBLIC "-//W3C//DTD SVG 20010904//EN"
 "http://www.w3.org/TR/2001/REC-SVG-20010904/DTD/svg10.dtd">
<svg version="1.0" xmlns="http://www.w3.org/2000/svg"
 width="250.000000pt" height="87.000000pt" viewBox="0 0 250.000000 87.000000"
 preserveAspectRatio="xMidYMid meet">

<g transform="translate(0.000000,87.000000) scale(0.100000,-0.100000)"
fill="#000000" stroke="none">
<path d="M1940 780 c-117 -25 -222 -109 -274 -220 -27 -57 -31 -76 -31 -150 0
-116 28 -185 106 -263 113 -113 265 -148 427 -98 57 17 118 58 165 111 103
115 123 286 49 423 -37 69 -129 151 -199 177 -66 25 -176 34 -243 20z m181
-187 c108 -56 148 -169 95 -277 -38 -78 -97 -116 -181 -116 -116 0 -198 73
-211 187 -5 41 -2 61 19 105 52 116 167 157 278 101z"/>
<path d="M70 405 l0 -376 93 3 92 3 5 203 5 202 205 -205 c202 -203 205 -205
247 -205 l43 0 0 375 0 375 -90 0 -90 0 0 -200 c0 -110 -3 -200 -6 -200 -3 0
-99 90 -212 200 -203 196 -207 200 -249 200 l-43 0 0 -375z"/>
<path d="M890 700 l0 -80 325 0 325 0 0 80 0 80 -325 0 -325 0 0 -80z"/>
<path d="M960 405 l0 -75 260 0 260 0 0 75 0 75 -260 0 -260 0 0 -75z"/>
<path d="M890 110 l0 -80 328 2 327 3 3 78 3 77 -331 0 -330 0 0 -80z"/>
</g>
</svg>
