<?xml version="1.0" standalone="no"?>
<!DOCTYPE svg PUBLIC "-//W3C//DTD SVG 20010904//EN"
 "http://www.w3.org/TR/2001/REC-SVG-20010904/DTD/svg10.dtd">
<svg version="1.0" xmlns="http://www.w3.org/2000/svg"
 width="396.000000pt" height="125.000000pt" viewBox="0 0 396.000000 125.000000"
 preserveAspectRatio="xMidYMid meet">

<g transform="translate(0.000000,125.000000) scale(0.100000,-0.100000)"
fill="#000000" stroke="none">
<path d="M623 1199 c-86 -30 -171 -108 -215 -197 -31 -62 -33 -74 -33 -167 0
-93 2 -105 33 -167 22 -44 51 -84 90 -119 l57 -52 11 56 c25 127 105 232 220
288 88 44 207 52 299 21 33 -11 61 -20 61 -19 1 1 -2 27 -7 57 -19 123 -105
235 -219 288 -78 37 -209 41 -297 11z"/>
<path d="M3435 936 c-120 -29 -234 -126 -276 -234 -48 -123 -23 -280 61 -375
81 -91 183 -137 309 -137 88 0 137 13 213 57 255 148 241 523 -25 653 -99 48
-187 59 -282 36z m181 -175 c104 -47 151 -175 103 -281 -26 -57 -44 -77 -94
-103 -91 -46 -205 -17 -268 70 -96 134 7 333 173 333 25 0 63 -9 86 -19z"/>
<path d="M1570 565 l0 -375 90 0 90 0 0 205 c0 113 3 205 7 205 4 0 100 -92
213 -205 202 -201 207 -205 248 -205 l42 0 0 375 0 375 -90 0 -90 0 0 -206 0
-206 -212 206 c-209 202 -214 206 -255 206 l-43 0 0 -375z"/>
<path d="M2392 865 l3 -75 322 0 323 0 0 75 0 75 -325 0 -326 0 3 -75z"/>
<path d="M842 822 c-67 -24 -71 -29 -41 -49 37 -26 87 -83 113 -128 35 -64 49
-126 44 -212 -5 -104 -46 -193 -123 -268 l-56 -53 48 -19 c35 -13 75 -18 148
-18 88 0 107 3 157 27 152 71 248 253 219 413 -24 130 -102 235 -216 290 -78
38 -211 46 -293 17z"/>
<path d="M264 735 c-92 -91 -118 -152 -117 -275 0 -74 4 -94 30 -152 60 -129
166 -208 307 -227 82 -12 149 -1 221 34 105 51 198 180 212 293 l6 52 -37 -15
c-234 -98 -506 56 -544 306 l-8 54 -70 -70z"/>
<path d="M2460 565 l0 -75 255 0 255 0 0 75 0 75 -255 0 -255 0 0 -75z"/>
<path d="M2390 270 l0 -80 324 0 324 0 4 76 c2 42 1 78 -1 80 -2 2 -150 4
-328 4 l-323 0 0 -80z"/>
</g>
</svg>
